# xmcd
#
# Track frame offsets: 
#        150
#        21895
#        42333
#        67453
#        82978
#        102635
#        121411
#        141129
#        157592
#        181435
#        205168
#        225081
#        245528
#        266948
#
# Disc length: 3795 seconds
#
# Revision: 0
# Processed by: cddbd v1.5.2PL0 Copyright (c) Steve Scherf et al.
# Submitted via: ExactAudioCopy v1.3
#
DISCID=c10ed10e
DTITLE=John Baldwin - Six String Slinger
DYEAR=2019
DGENRE=Rockin' Blues
TTITLE0=Boy Toy
TTITLE1=Walk Away
TTITLE2=I Can't Feel You Iin My Heart
TTITLE3=Empty Arms
TTITLE4=Melt Into You
TTITLE5=Flying Blind
TTITLE6=Just A Little
TTITLE7=T.G.I.F.
TTITLE8=I Been Out With Another Woman
TTITLE9=100 Miles From Nowhere
TTITLE10=Both Feet Planted
TTITLE11=F.W.B.
TTITLE12=City Lights
TTITLE13=Jeannie Marie
EXTD=
EXTT0=
EXTT1=
EXTT2=
EXTT3=
EXTT4=
EXTT5=
EXTT6=
EXTT7=
EXTT8=
EXTT9=
EXTT10=
EXTT11=
EXTT12=
EXTT13=
PLAYORDER=
